<svg width="26" height="26" viewBox="0 0 26 26" fill="none" xmlns="http://www.w3.org/2000/svg">
<path d="M12.0529 16.0259L12.0339 16.0079C12.5692 16.0618 13.1098 15.9961 13.6167 15.8155C14.1235 15.6349 14.5839 15.344 14.9645 14.9637C15.345 14.5834 15.6364 14.1232 15.8173 13.6165C15.9983 13.1098 16.0644 12.5693 16.0109 12.0339L16.0299 12.0519C15.9767 11.422 16.0617 10.7882 16.2787 10.1945C16.4958 9.60089 16.8399 9.06179 17.2868 8.61479C17.7338 8.16789 18.2729 7.82379 18.8665 7.60679C19.4602 7.38965 20.094 7.30472 20.7239 7.35789L20.7049 7.33989C21.4584 7.41069 22.2153 7.24725 22.8725 6.87199C23.5298 6.49673 24.0552 5.92786 24.3772 5.24299C24.6992 4.55813 24.8021 3.7906 24.6719 3.04509C24.5417 2.29958 24.1847 1.6124 23.6495 1.07726C23.1144 0.542129 22.4272 0.185089 21.6817 0.0548686C20.9362 -0.0753614 20.1687 0.0275487 19.4838 0.349569C18.7989 0.671579 18.2301 1.19703 17.8548 1.85424C17.4795 2.51144 17.3161 3.26841 17.3869 4.02189L17.3689 4.00289C17.4222 4.63278 17.3374 5.26672 17.1204 5.86044C16.9034 6.45416 16.5593 6.99335 16.1124 7.44039C15.6654 7.88729 15.1262 8.23139 14.5325 8.44839C13.9387 8.66539 13.3048 8.75019 12.6749 8.69689L12.6929 8.71589C12.1576 8.66199 11.6169 8.72769 11.1101 8.90829C10.6033 9.08879 10.1429 9.37979 9.7623 9.76009C9.3817 10.1404 9.0904 10.6006 8.9094 11.1073C8.7285 11.614 8.6624 12.1545 8.7159 12.6899L8.6979 12.6719C8.7509 13.3017 8.6658 13.9355 8.4487 14.5291C8.2315 15.1226 7.8875 15.6617 7.4406 16.1086C6.99366 16.5555 6.45462 16.8995 5.86106 17.1167C5.2675 17.3338 4.63371 17.4189 4.0039 17.3659L4.0219 17.3839C3.26842 17.3131 2.51145 17.4765 1.85424 17.8518C1.19704 18.2271 0.671587 18.7959 0.349577 19.4808C0.0275566 20.1657 -0.0753633 20.9332 0.0548667 21.6787C0.185097 22.4242 0.542137 23.1114 1.07727 23.6465C1.61241 24.1817 2.29959 24.5387 3.0451 24.6689C3.79061 24.7991 4.55814 24.6962 5.24301 24.3742C5.92787 24.0522 6.49674 23.5268 6.872 22.8696C7.2473 22.2123 7.4107 21.4554 7.3399 20.7019L7.3589 20.7199C7.3057 20.09 7.3907 19.4562 7.6078 18.8625C7.8248 18.2689 8.1689 17.7298 8.6158 17.2828C9.0628 16.8359 9.6019 16.4918 10.1955 16.2748C10.7892 16.0577 11.423 15.9727 12.0529 16.0259Z" fill="#1348f6"/>
<path d="M18.7589 10.0802C18.3799 10.4615 18.0897 10.9217 17.9089 11.4279C17.7281 11.9342 17.6612 12.4741 17.7129 13.0092L17.6949 12.9912C17.7481 13.6211 17.6631 14.2549 17.446 14.8486C17.2289 15.4422 16.8849 15.9813 16.438 16.4283C15.991 16.8752 15.4519 17.2193 14.8582 17.4363C14.2646 17.6534 13.6307 17.7384 13.0009 17.6852L13.0189 17.7032C12.2655 17.6331 11.5088 17.797 10.8519 18.1727C10.1951 18.5484 9.67009 19.1175 9.34859 19.8025C9.02709 20.4875 8.92459 21.2549 9.05519 22.0003C9.18589 22.7456 9.54319 23.4325 10.0785 23.9673C10.6138 24.5021 11.301 24.8588 12.0464 24.9887C12.7919 25.1187 13.5592 25.0155 14.2439 24.6934C14.9286 24.3712 15.4972 23.8458 15.8723 23.1886C16.2474 22.5314 16.4107 21.7746 16.3399 21.0212L16.3589 21.0392C16.3057 20.4094 16.3906 19.7755 16.6077 19.1818C16.8248 18.5882 17.1689 18.0491 17.6158 17.6021C18.0628 17.1552 18.6019 16.8111 19.1955 16.5941C19.7892 16.377 20.423 16.292 21.0529 16.3452L21.0339 16.3272C21.6493 16.3825 22.2688 16.2816 22.8349 16.0338C23.4009 15.786 23.8953 15.3993 24.2721 14.9096C24.6489 14.4199 24.8961 13.8429 24.9905 13.2323C25.085 12.6216 25.0238 11.997 24.8126 11.4162C24.6014 10.8355 24.247 10.3175 23.7823 9.91024C23.3176 9.50294 22.7576 9.21954 22.1542 9.08634C21.5508 8.95314 20.9235 8.97434 20.3305 9.14804C19.7375 9.32184 19.198 9.64244 18.7619 10.0802H18.7589Z" fill="#1348f6"/>
<path d="M9.75889 1.08024C9.37989 1.46154 9.08969 1.92174 8.90889 2.42794C8.72809 2.93424 8.66119 3.47414 8.71289 4.00924L8.69489 3.99124C8.74809 4.62114 8.66309 5.25494 8.44599 5.84864C8.22889 6.44224 7.88489 6.98134 7.43799 7.42834C6.99099 7.87524 6.45189 8.21934 5.85819 8.43634C5.26459 8.65344 4.63069 8.73844 4.00089 8.68524L4.01889 8.70324C3.26549 8.63314 2.50879 8.79704 1.85189 9.17274C1.19509 9.54844 0.670094 10.1175 0.348594 10.8025C0.0270935 11.4875 -0.0754073 12.2549 0.0551927 13.0003C0.185893 13.7456 0.543193 14.4325 1.07849 14.9673C1.61379 15.5021 2.30099 15.8588 3.04639 15.9887C3.79189 16.1187 4.55919 16.0155 5.24389 15.6934C5.92859 15.3712 6.49719 14.8458 6.87229 14.1886C7.24739 13.5314 7.41069 12.7746 7.33989 12.0212L7.35889 12.0392C7.30569 11.4094 7.39059 10.7755 7.60769 10.1818C7.82479 9.58824 8.16889 9.04914 8.61579 8.60214C9.06279 8.15524 9.60189 7.81114 10.1955 7.59414C10.7892 7.37704 11.423 7.29204 12.0529 7.34524L12.0339 7.32724C12.6493 7.38254 13.2688 7.28164 13.8349 7.03384C14.4009 6.78604 14.8953 6.39934 15.2721 5.90964C15.6489 5.41994 15.8961 4.84294 15.9905 4.23234C16.085 3.62164 16.0238 2.99704 15.8126 2.41624C15.6014 1.83554 15.247 1.31754 14.7823 0.910237C14.3176 0.502937 13.7576 0.219536 13.1542 0.0863363C12.5508 -0.0468637 11.9235 -0.0256638 11.3305 0.148036C10.7375 0.321836 10.198 0.642437 9.76189 1.08024H9.75889Z" fill="#1348f6"/>
</svg>
